<svg width="28" height="28" viewBox="0 0 28 28" fill="none" xmlns="http://www.w3.org/2000/svg">
<g id="account_circle_24px">
<path id="icon/action/account_circle_24px" fill-rule="evenodd" clip-rule="evenodd" d="M13.9999 2.33331C7.55992 2.33331 2.33325 7.55998 2.33325 14C2.33325 20.44 7.55992 25.6666 13.9999 25.6666C20.4399 25.6666 25.6666 20.44 25.6666 14C25.6666 7.55998 20.4399 2.33331 13.9999 2.33331ZM8.24825 21.3266C8.74992 20.2766 11.8066 19.25 13.9999 19.25C16.1933 19.25 19.2616 20.2766 19.7516 21.3266C18.1649 22.5866 16.1699 23.3333 13.9999 23.3333C11.8299 23.3333 9.83492 22.5866 8.24825 21.3266ZM13.9999 16.9166C15.7033 16.9166 19.7516 17.605 21.4199 19.635C22.6099 18.0716 23.3333 16.1233 23.3333 14C23.3333 8.85498 19.1449 4.66665 13.9999 4.66665C8.85492 4.66665 4.66659 8.85498 4.66659 14C4.66659 16.1233 5.38992 18.0716 6.57992 19.635C8.24825 17.605 12.2966 16.9166 13.9999 16.9166ZM13.9999 6.99998C11.7366 6.99998 9.91658 8.81998 9.91658 11.0833C9.91658 13.3466 11.7366 15.1666 13.9999 15.1666C16.2633 15.1666 18.0833 13.3466 18.0833 11.0833C18.0833 8.81998 16.2633 6.99998 13.9999 6.99998ZM12.2499 11.0833C12.2499 12.0516 13.0316 12.8333 13.9999 12.8333C14.9683 12.8333 15.7499 12.0516 15.7499 11.0833C15.7499 10.115 14.9683 9.33331 13.9999 9.33331C13.0316 9.33331 12.2499 10.115 12.2499 11.0833Z" fill="#BDBDBD"/>
</g>
</svg>
